Griffith_Gothic-Light_Italic.ufo
<glyph name="exclam" format="1">
  <advance width="242"/>
  <unicode hex="0021"/>
  <outline>
    <contour>
      <point x="278" y="720" type="line"/>
      <point x="125" y="207" type="line"/>
      <point x="90" y="207" type="line"/>
      <point x="194" y="720" type="line"/>
    </contour>
    <contour>
      <point x="117" y="42" type="curve" smooth="yes"/>
      <point x="117" y="14"/>
      <point x="97" y="-7"/>
      <point x="68" y="-7" type="curve" smooth="yes"/>
      <point x="40" y="-7"/>
      <point x="20" y="14"/>
      <point x="20" y="42" type="curve" smooth="yes"/>
      <point x="20" y="70"/>
      <point x="40" y="90"/>
      <point x="68" y="90" type="curve" smooth="yes"/>
      <point x="97" y="90"/>
      <point x="117" y="70"/>
    </contour>
  </outline>
</glyph>
<glyph name="numbersign" format="1">
  <advance width="611"/>
  <unicode hex="0023"/>
  <outline>
    <contour>
      <point x="641" y="517" type="line"/>
      <point x="628" y="463" type="line"/>
      <point x="509" y="463" type="line"/>
      <point x="438" y="257" type="line"/>
      <point x="562" y="257" type="line"/>
      <point x="548" y="203" type="line"/>
      <point x="419" y="203" type="line"/>
      <point x="350" y="0" type="line"/>
      <point x="302" y="0" type="line"/>
      <point x="371" y="203" type="line"/>
      <point x="189" y="203" type="line"/>
      <point x="119" y="0" type="line"/>
      <point x="71" y="0" type="line"/>
      <point x="141" y="203" type="line"/>
      <point x="27" y="203" type="line"/>
      <point x="41" y="257" type="line"/>
      <point x="160" y="257" type="line"/>
      <point x="230" y="463" type="line"/>
      <point x="107" y="463" type="line"/>
      <point x="120" y="517" type="line"/>
      <point x="250" y="517" type="line"/>
      <point x="319" y="720" type="line"/>
      <point x="367" y="720" type="line"/>
      <point x="298" y="517" type="line"/>
      <point x="479" y="517" type="line"/>
      <point x="549" y="720" type="line"/>
      <point x="597" y="720" type="line"/>
      <point x="527" y="517" type="line"/>
    </contour>
    <contour>
      <point x="462" y="464" type="line"/>
      <point x="278" y="464" type="line"/>
      <point x="207" y="256" type="line"/>
      <point x="390" y="256" type="line"/>
    </contour>
  </outline>
</glyph>
<glyph name="percent" format="1">
  <advance width="830"/>
  <unicode hex="0025"/>
  <outline>
    <contour>
      <point x="790" y="231" type="curve" smooth="yes"/>
      <point x="790" y="118"/>
      <point x="714" y="-7"/>
      <point x="597" y="-7" type="curve" smooth="yes"/>
      <point x="525" y="-7"/>
      <point x="460" y="41"/>
      <point x="460" y="140" type="curve" smooth="yes"/>
      <point x="460" y="253"/>
      <point x="537" y="378"/>
      <point x="653" y="378" type="curve" smooth="yes"/>
      <point x="725" y="378"/>
      <point x="790" y="330"/>
    </contour>
    <contour>
      <point x="782" y="720" type="line"/>
      <point x="459" y="351" type="line"/>
      <point x="163" y="0" type="line"/>
      <point x="99" y="0" type="line"/>
      <point x="423" y="369" type="line"/>
      <point x="718" y="720" type="line"/>
    </contour>
    <contour>
      <point x="421" y="580" type="curve" smooth="yes"/>
      <point x="421" y="467"/>
      <point x="344" y="342"/>
      <point x="228" y="342" type="curve" smooth="yes"/>
      <point x="156" y="342"/>
      <point x="91" y="390"/>
      <point x="91" y="489" type="curve" smooth="yes"/>
      <point x="91" y="602"/>
      <point x="168" y="727"/>
      <point x="284" y="727" type="curve" smooth="yes"/>
      <point x="356" y="727"/>
      <point x="421" y="679"/>
    </contour>
    <contour>
      <point x="734" y="230" type="curve" smooth="yes"/>
      <point x="734" y="293"/>
      <point x="703" y="333"/>
      <point x="652" y="333" type="curve" smooth="yes"/>
      <point x="567" y="333"/>
      <point x="517" y="225"/>
      <point x="517" y="141" type="curve" smooth="yes"/>
      <point x="517" y="78"/>
      <point x="548" y="38"/>
      <point x="599" y="38" type="curve" smooth="yes"/>
      <point x="683" y="38"/>
      <point x="734" y="146"/>
    </contour>
    <contour>
      <point x="365" y="579" type="curve" smooth="yes"/>
      <point x="365" y="642"/>
      <point x="333" y="682"/>
      <point x="282" y="682" type="curve" smooth="yes"/>
      <point x="198" y="682"/>
      <point x="147" y="574"/>
      <point x="147" y="490" type="curve" smooth="yes"/>
      <point x="147" y="427"/>
      <point x="178" y="387"/>
      <point x="229" y="387" type="curve" smooth="yes"/>
      <point x="314" y="387"/>
      <point x="365" y="495"/>
    </contour>
  </outline>
</glyph>
<glyph name="ampersand" format="1">
  <advance width="673"/>
  <unicode hex="0026"/>
  <outline>
    <contour>
      <point x="653" y="361" type="line"/>
      <point x="593" y="267"/>
      <point x="529" y="182"/>
      <point x="461" y="118" type="curve"/>
      <point x="501" y="54"/>
      <point x="531" y="47"/>
      <point x="575" y="47" type="curve" smooth="yes"/>
      <point x="590" y="47"/>
      <point x="602" y="48"/>
      <point x="619" y="51" type="curve"/>
      <point x="605" y="-2" type="line"/>
      <point x="588" y="-5"/>
      <point x="576" y="-6"/>
      <point x="559" y="-6" type="curve" smooth="yes"/>
      <point x="494" y="-6"/>
      <point x="455" y="11"/>
      <point x="413" y="77" type="curve"/>
      <point x="344" y="22"/>
      <point x="277" y="-10"/>
      <point x="205" y="-10" type="curve" smooth="yes"/>
      <point x="99" y="-10"/>
      <point x="24" y="51"/>
      <point x="24" y="161" type="curve" smooth="yes"/>
      <point x="24" y="273"/>
      <point x="98" y="366"/>
      <point x="253" y="428" type="curve"/>
      <point x="238" y="472"/>
      <point x="231" y="505"/>
      <point x="231" y="548" type="curve" smooth="yes"/>
      <point x="231" y="650"/>
      <point x="306" y="732"/>
      <point x="407" y="732" type="curve" smooth="yes"/>
      <point x="487" y="732"/>
      <point x="531" y="683"/>
      <point x="531" y="615" type="curve" smooth="yes"/>
      <point x="531" y="522"/>
      <point x="456" y="458"/>
      <point x="326" y="410" type="curve"/>
      <point x="370" y="295"/>
      <point x="401" y="224"/>
      <point x="435" y="162" type="curve"/>
      <point x="495" y="222"/>
      <point x="552" y="303"/>
      <point x="604" y="389" type="curve"/>
    </contour>
    <contour>
      <point x="473" y="610" type="curve" smooth="yes"/>
      <point x="473" y="656"/>
      <point x="448" y="686"/>
      <point x="403" y="686" type="curve" smooth="yes"/>
      <point x="336" y="686"/>
      <point x="294" y="625"/>
      <point x="294" y="553" type="curve" smooth="yes"/>
      <point x="294" y="515"/>
      <point x="299" y="483"/>
      <point x="310" y="448" type="curve"/>
      <point x="422" y="491"/>
      <point x="473" y="538"/>
    </contour>
    <contour>
      <point x="388" y="118" type="curve"/>
      <point x="351" y="186"/>
      <point x="316" y="266"/>
      <point x="270" y="386" type="curve"/>
      <point x="148" y="337"/>
      <point x="93" y="258"/>
      <point x="93" y="170" type="curve" smooth="yes"/>
      <point x="93" y="91"/>
      <point x="143" y="42"/>
      <point x="221" y="42" type="curve" smooth="yes"/>
      <point x="277" y="42"/>
      <point x="333" y="71"/>
    </contour>
  </outline>
</glyph>
<glyph name="quotesingle" format="1">
  <advance width="186"/>
  <unicode hex="0027"/>
  <outline>
    <contour>
      <point x="227" y="720" type="line"/>
      <point x="156" y="505" type="line"/>
      <point x="116" y="505" type="line"/>
      <point x="153" y="720" type="line"/>
    </contour>
  </outline>
</glyph>
<glyph name="parenleft" format="1">
  <advance width="314"/>
  <unicode hex="0028"/>
  <outline>
    <contour>
      <point x="406" y="735" type="line"/>
      <point x="229" y="590"/>
      <point x="129" y="395"/>
      <point x="129" y="194" type="curve" smooth="yes"/>
      <point x="129" y="83"/>
      <point x="148" y="3"/>
      <point x="195" y="-95" type="curve"/>
      <point x="141" y="-95" type="line"/>
      <point x="94" y="-16"/>
      <point x="58" y="88"/>
      <point x="58" y="200" type="curve" smooth="yes"/>
      <point x="58" y="420"/>
      <point x="177" y="608"/>
      <point x="341" y="735" type="curve"/>
    </contour>
  </outline>
</glyph>
<glyph name="parenright" format="1">
  <advance width="314"/>
  <unicode hex="0029"/>
  <outline>
    <contour>
      <point x="285" y="440" type="curve" smooth="yes"/>
      <point x="285" y="220"/>
      <point x="166" y="32"/>
      <point x="2" y="-95" type="curve"/>
      <point x="-63" y="-95" type="line"/>
      <point x="114" y="50"/>
      <point x="214" y="245"/>
      <point x="214" y="446" type="curve" smooth="yes"/>
      <point x="214" y="557"/>
      <point x="195" y="637"/>
      <point x="148" y="735" type="curve"/>
      <point x="202" y="735" type="line"/>
      <point x="249" y="656"/>
      <point x="285" y="552"/>
    </contour>
  </outline>
</glyph>
<glyph name="asterisk" format="1">
  <advance width="440"/>
  <unicode hex="002A"/>
  <outline>
    <contour>
      <point x="466" y="570" type="line"/>
      <point x="309" y="539" type="line"/>
      <point x="421" y="421" type="line"/>
      <point x="368" y="382" type="line"/>
      <point x="287" y="526" type="line"/>
      <point x="206" y="382" type="line"/>
      <point x="153" y="421" type="line"/>
      <point x="264" y="539" type="line"/>
      <point x="107" y="570" type="line"/>
      <point x="127" y="632" type="line"/>
      <point x="274" y="561" type="line"/>
      <point x="254" y="720" type="line"/>
      <point x="320" y="720" type="line"/>
      <point x="299" y="561" type="line"/>
      <point x="446" y="631" type="line"/>
    </contour>
  </outline>
</glyph>
<glyph name="plus" format="1">
  <advance width="600"/>
  <unicode hex="002B"/>
  <outline>
    <contour>
      <point x="579" y="326" type="line"/>
      <point x="355" y="326" type="line"/>
      <point x="355" y="101" type="line"/>
      <point x="294" y="101" type="line"/>
      <point x="294" y="326" type="line"/>
      <point x="70" y="326" type="line"/>
      <point x="70" y="384" type="line"/>
      <point x="294" y="384" type="line"/>
      <point x="294" y="609" type="line"/>
      <point x="355" y="609" type="line"/>
      <point x="355" y="384" type="line"/>
      <point x="579" y="384" type="line"/>
    </contour>
  </outline>
</glyph>
<glyph name="hyphen" format="1">
  <advance width="309"/>
  <unicode hex="002D"/>
  <unicode hex="2010"/>
  <unicode hex="2011"/>
  <outline>
    <contour>
      <point x="283" y="311" type="line"/>
      <point x="268" y="250" type="line"/>
      <point x="36" y="250" type="line"/>
      <point x="51" y="311" type="line"/>
    </contour>
  </outline>
</glyph>
<glyph name="three" format="1">
  <advance width="515"/>
  <unicode hex="0033"/>
  <outline>
    <contour>
      <point x="510" y="598" type="curve" smooth="yes"/>
      <point x="510" y="506"/>
      <point x="442" y="450"/>
      <point x="304" y="401" type="curve"/>
      <point x="306" y="397" type="line"/>
      <point x="405" y="396"/>
      <point x="476" y="353"/>
      <point x="476" y="253" type="curve" smooth="yes"/>
      <point x="476" y="95"/>
      <point x="281" y="-4"/>
      <point x="49" y="-4" type="curve" smooth="yes"/>
      <point x="14" y="-4"/>
      <point x="-8" y="-3"/>
      <point x="-40" y="0" type="curve"/>
      <point x="-30" y="53" type="line"/>
      <point x="-1" y="50"/>
      <point x="15" y="49"/>
      <point x="47" y="49" type="curve" smooth="yes"/>
      <point x="241" y="49"/>
      <point x="405" y="123"/>
      <point x="405" y="251" type="curve" smooth="yes"/>
      <point x="405" y="331"/>
      <point x="352" y="361"/>
      <point x="274" y="361" type="curve" smooth="yes"/>
      <point x="248" y="361"/>
      <point x="224" y="358"/>
      <point x="198" y="353" type="curve"/>
      <point x="192" y="401" type="line"/>
      <point x="383" y="457"/>
      <point x="440" y="512"/>
      <point x="440" y="590" type="curve" smooth="yes"/>
      <point x="440" y="644"/>
      <point x="404" y="678"/>
      <point x="343" y="678" type="curve" smooth="yes"/>
      <point x="282" y="678"/>
      <point x="224" y="653"/>
      <point x="159" y="602" type="curve"/>
      <point x="129" y="642" type="line"/>
      <point x="198" y="696"/>
      <point x="269" y="732"/>
      <point x="354" y="732" type="curve" smooth="yes"/>
      <point x="451" y="732"/>
      <point x="510" y="681"/>
    </contour>
  </outline>
</glyph>
<glyph name="five" format="1">
  <advance width="536"/>
  <unicode hex="0035"/>
  <outline>
    <contour>
      <point x="553" y="720" type="line"/>
      <point x="541" y="663" type="line"/>
      <point x="252" y="663" type="line"/>
      <point x="165" y="393" type="line"/>
      <point x="173" y="393" type="line"/>
      <point x="220" y="436"/>
      <point x="263" y="459"/>
      <point x="323" y="459" type="curve" smooth="yes"/>
      <point x="427" y="459"/>
      <point x="495" y="394"/>
      <point x="495" y="279" type="curve" smooth="yes"/>
      <point x="495" y="276" type="line" smooth="yes"/>
      <point x="495" y="110"/>
      <point x="367" y="-10"/>
      <point x="196" y="-10" type="curve" smooth="yes"/>
      <point x="107" y="-10"/>
      <point x="46" y="11"/>
      <point x="-14" y="46" type="curve"/>
      <point x="17" y="98" type="line"/>
      <point x="72" y="64"/>
      <point x="131" y="45"/>
      <point x="199" y="45" type="curve" smooth="yes"/>
      <point x="329" y="45"/>
      <point x="424" y="141"/>
      <point x="424" y="270" type="curve" smooth="yes"/>
      <point x="424" y="272" type="line" smooth="yes"/>
      <point x="424" y="361"/>
      <point x="376" y="407"/>
      <point x="303" y="407" type="curve" smooth="yes"/>
      <point x="243" y="407"/>
      <point x="211" y="383"/>
      <point x="166" y="344" type="curve"/>
      <point x="94" y="344" type="line"/>
      <point x="212" y="720" type="line"/>
    </contour>
  </outline>
</glyph>
<glyph name="six" format="1">
  <advance width="554"/>
  <unicode hex="0036"/>
  <outline>
    <contour>
      <point x="523" y="261" type="curve" smooth="yes"/>
      <point x="523" y="113"/>
      <point x="397" y="-12"/>
      <point x="246" y="-12" type="curve" smooth="yes"/>
      <point x="127" y="-12"/>
      <point x="45" y="61"/>
      <point x="45" y="188" type="curve" smooth="yes"/>
      <point x="45" y="403"/>
      <point x="217" y="600"/>
      <point x="408" y="720" type="curve"/>
      <point x="512" y="720" type="line"/>
      <point x="326" y="615"/>
      <point x="193" y="475"/>
      <point x="144" y="362" type="curve"/>
      <point x="151" y="362" type="line"/>
      <point x="211" y="420"/>
      <point x="267" y="448"/>
      <point x="340" y="448" type="curve" smooth="yes"/>
      <point x="448" y="448"/>
      <point x="523" y="385"/>
    </contour>
    <contour>
      <point x="452" y="254" type="curve" smooth="yes"/>
      <point x="452" y="344"/>
      <point x="404" y="396"/>
      <point x="316" y="396" type="curve" smooth="yes"/>
      <point x="209" y="396"/>
      <point x="112" y="306"/>
      <point x="112" y="183" type="curve" smooth="yes"/>
      <point x="112" y="96"/>
      <point x="167" y="40"/>
      <point x="252" y="40" type="curve" smooth="yes"/>
      <point x="361" y="40"/>
      <point x="452" y="138"/>
    </contour>
  </outline>
</glyph>
<glyph name="seven" format="1">
  <advance width="491"/>
  <unicode hex="0037"/>
  <outline>
    <contour>
      <point x="582" y="720" type="line"/>
      <point x="571" y="675" type="line"/>
      <point x="379" y="483"/>
      <point x="215" y="222"/>
      <point x="128" y="0" type="curve"/>
      <point x="54" y="0" type="line"/>
      <point x="133" y="196"/>
      <point x="298" y="467"/>
      <point x="491" y="663" type="curve"/>
      <point x="116" y="663" type="line"/>
      <point x="129" y="720" type="line"/>
    </contour>
  </outline>
</glyph>
<glyph name="nine" format="1">
  <advance width="554"/>
  <unicode hex="0039"/>
  <outline>
    <contour>
      <point x="559" y="532" type="curve" smooth="yes"/>
      <point x="559" y="317"/>
      <point x="387" y="120"/>
      <point x="196" y="0" type="curve"/>
      <point x="92" y="0" type="line"/>
      <point x="278" y="105"/>
      <point x="411" y="245"/>
      <point x="460" y="358" type="curve"/>
      <point x="453" y="358" type="line"/>
      <point x="393" y="300"/>
      <point x="338" y="272"/>
      <point x="265" y="272" type="curve" smooth="yes"/>
      <point x="156" y="272"/>
      <point x="82" y="335"/>
      <point x="82" y="459" type="curve" smooth="yes"/>
      <point x="82" y="607"/>
      <point x="208" y="732"/>
      <point x="358" y="732" type="curve" smooth="yes"/>
      <point x="477" y="732"/>
      <point x="559" y="659"/>
    </contour>
    <contour>
      <point x="493" y="537" type="curve" smooth="yes"/>
      <point x="493" y="624"/>
      <point x="438" y="680"/>
      <point x="352" y="680" type="curve" smooth="yes"/>
      <point x="244" y="680"/>
      <point x="152" y="582"/>
      <point x="152" y="466" type="curve" smooth="yes"/>
      <point x="152" y="376"/>
      <point x="200" y="324"/>
      <point x="288" y="324" type="curve" smooth="yes"/>
      <point x="395" y="324"/>
      <point x="493" y="414"/>
    </contour>
  </outline>
</glyph>
<glyph name="semicolon" format="1">
  <advance width="204"/>
  <unicode hex="003B"/>
  <outline>
    <contour>
      <point x="205" y="472" type="curve" smooth="yes"/>
      <point x="205" y="443"/>
      <point x="184" y="422"/>
      <point x="156" y="422" type="curve" smooth="yes"/>
      <point x="127" y="422"/>
      <point x="106" y="443"/>
      <point x="106" y="472" type="curve" smooth="yes"/>
      <point x="106" y="500"/>
      <point x="127" y="521"/>
      <point x="156" y="521" type="curve" smooth="yes"/>
      <point x="184" y="521"/>
      <point x="205" y="500"/>
    </contour>
    <contour>
      <point x="106" y="96" type="line"/>
      <point x="-17" y="-119" type="line"/>
      <point x="-61" y="-119" type="line"/>
      <point x="25" y="96" type="line"/>
    </contour>
  </outline>
</glyph>
<glyph name="less" format="1">
  <advance width="600"/>
  <unicode hex="003C"/>
  <outline>
    <contour>
      <point x="568" y="101" type="line"/>
      <point x="73" y="325" type="line"/>
      <point x="73" y="385" type="line"/>
      <point x="568" y="609" type="line"/>
      <point x="568" y="545" type="line"/>
      <point x="140" y="355" type="line"/>
      <point x="568" y="165" type="line"/>
    </contour>
  </outline>
</glyph>
<glyph name="greater" format="1">
  <advance width="600"/>
  <unicode hex="003E"/>
  <outline>
    <contour>
      <point x="576" y="325" type="line"/>
      <point x="81" y="101" type="line"/>
      <point x="81" y="165" type="line"/>
      <point x="509" y="355" type="line"/>
      <point x="81" y="545" type="line"/>
      <point x="81" y="609" type="line"/>
      <point x="576" y="385" type="line"/>
    </contour>
  </outline>
</glyph>
<glyph name="question" format="1">
  <advance width="442"/>
  <unicode hex="003F"/>
  <outline>
    <contour>
      <point x="480" y="598" type="curve" smooth="yes"/>
      <point x="480" y="509"/>
      <point x="427" y="457"/>
      <point x="331" y="390" type="curve" smooth="yes"/>
      <point x="257" y="338"/>
      <point x="234" y="306"/>
      <point x="208" y="207" type="curve"/>
      <point x="163" y="207" type="line"/>
      <point x="186" y="334"/>
      <point x="214" y="372"/>
      <point x="299" y="431" type="curve" smooth="yes"/>
      <point x="364" y="477"/>
      <point x="411" y="526"/>
      <point x="411" y="592" type="curve" smooth="yes"/>
      <point x="411" y="650"/>
      <point x="369" y="677"/>
      <point x="312" y="677" type="curve" smooth="yes"/>
      <point x="253" y="677"/>
      <point x="208" y="646"/>
      <point x="160" y="577" type="curve"/>
      <point x="113" y="608" type="line"/>
      <point x="168" y="689"/>
      <point x="237" y="732"/>
      <point x="320" y="732" type="curve" smooth="yes"/>
      <point x="419" y="732"/>
      <point x="480" y="679"/>
    </contour>
    <contour>
      <point x="200" y="42" type="curve" smooth="yes"/>
      <point x="200" y="14"/>
      <point x="180" y="-7"/>
      <point x="151" y="-7" type="curve" smooth="yes"/>
      <point x="123" y="-7"/>
      <point x="103" y="14"/>
      <point x="103" y="42" type="curve" smooth="yes"/>
      <point x="103" y="70"/>
      <point x="123" y="90"/>
      <point x="151" y="90" type="curve" smooth="yes"/>
      <point x="180" y="90"/>
      <point x="200" y="70"/>
    </contour>
  </outline>
</glyph>
<glyph name="at" format="1">
  <advance width="985"/>
  <unicode hex="0040"/>
  <outline>
    <contour>
      <point x="944" y="333" type="curve" smooth="yes"/>
      <point x="944" y="155"/>
      <point x="832" y="31"/>
      <point x="715" y="31" type="curve" smooth="yes"/>
      <point x="637" y="31"/>
      <point x="598" y="79"/>
      <point x="593" y="153" type="curve"/>
      <point x="588" y="153" type="line"/>
      <point x="542" y="76"/>
      <point x="484" y="31"/>
      <point x="423" y="31" type="curve" smooth="yes"/>
      <point x="345" y="31"/>
      <point x="293" y="95"/>
      <point x="293" y="201" type="curve" smooth="yes"/>
      <point x="293" y="363"/>
      <point x="375" y="514"/>
      <point x="489" y="514" type="curve" smooth="yes"/>
      <point x="561" y="514"/>
      <point x="598" y="462"/>
      <point x="619" y="394" type="curve"/>
      <point x="624" y="393" type="line"/>
      <point x="644" y="512" type="line"/>
      <point x="703" y="493" type="line"/>
      <point x="650" y="193" type="line" smooth="yes"/>
      <point x="638" y="123"/>
      <point x="660" y="64"/>
      <point x="728" y="64" type="curve" smooth="yes"/>
      <point x="817" y="64"/>
      <point x="907" y="177"/>
      <point x="907" y="331" type="curve" smooth="yes"/>
      <point x="907" y="558"/>
      <point x="746" y="700"/>
      <point x="517" y="700" type="curve" smooth="yes"/>
      <point x="279" y="700"/>
      <point x="94" y="508"/>
      <point x="94" y="266" type="curve" smooth="yes"/>
      <point x="94" y="11"/>
      <point x="259" y="-160"/>
      <point x="508" y="-160" type="curve" smooth="yes"/>
      <point x="630" y="-160"/>
      <point x="716" y="-136"/>
      <point x="805" y="-87" type="curve"/>
      <point x="821" y="-114" type="line"/>
      <point x="728" y="-164"/>
      <point x="636" y="-192"/>
      <point x="506" y="-192" type="curve" smooth="yes"/>
      <point x="236" y="-192"/>
      <point x="56" y="-10"/>
      <point x="56" y="265" type="curve" smooth="yes"/>
      <point x="56" y="529"/>
      <point x="266" y="732"/>
      <point x="520" y="732" type="curve" smooth="yes"/>
      <point x="759" y="732"/>
      <point x="944" y="574"/>
    </contour>
    <contour>
      <point x="609" y="317" type="curve" smooth="yes"/>
      <point x="609" y="391"/>
      <point x="569" y="467"/>
      <point x="504" y="467" type="curve" smooth="yes"/>
      <point x="419" y="467"/>
      <point x="355" y="353"/>
      <point x="355" y="206" type="curve" smooth="yes"/>
      <point x="355" y="126"/>
      <point x="387" y="74"/>
      <point x="446" y="74" type="curve" smooth="yes"/>
      <point x="528" y="74"/>
      <point x="609" y="202"/>
    </contour>
  </outline>
</glyph>
<glyph name="D" format="1">
  <advance width="617"/>
  <unicode hex="0044"/>
  <outline>
    <contour>
      <point x="604" y="462" type="line" smooth="yes"/>
      <point x="604" y="419"/>
      <point x="600" y="383"/>
      <point x="590" y="342" type="curve" smooth="yes"/>
      <point x="540" y="125"/>
      <point x="383" y="0"/>
      <point x="191" y="0" type="curve" smooth="yes"/>
      <point x="19" y="0" type="line"/>
      <point x="199" y="720" type="line"/>
      <point x="338" y="720" type="line" smooth="yes"/>
      <point x="494" y="720"/>
      <point x="604" y="639"/>
      <point x="604" y="465" type="curve" smooth="yes"/>
    </contour>
    <contour>
      <point x="531" y="458" type="curve" smooth="yes"/>
      <point x="531" y="461" type="line" smooth="yes"/>
      <point x="531" y="596"/>
      <point x="450" y="664"/>
      <point x="331" y="664" type="curve" smooth="yes"/>
      <point x="255" y="664" type="line"/>
      <point x="104" y="56" type="line"/>
      <point x="196" y="56" type="line" smooth="yes"/>
      <point x="343" y="56"/>
      <point x="469" y="157"/>
      <point x="515" y="331" type="curve" smooth="yes"/>
      <point x="525" y="369"/>
      <point x="531" y="416"/>
    </contour>
  </outline>
</glyph>
<glyph name="E" format="1">
  <advance width="552"/>
  <unicode hex="0045"/>
  <outline>
    <contour>
      <point x="616" y="720" type="line"/>
      <point x="602" y="663" type="line"/>
      <point x="255" y="663" type="line"/>
      <point x="190" y="404" type="line"/>
      <point x="478" y="404" type="line"/>
      <point x="465" y="349" type="line"/>
      <point x="178" y="349" type="line"/>
      <point x="105" y="57" type="line"/>
      <point x="463" y="57" type="line"/>
      <point x="448" y="0" type="line"/>
      <point x="19" y="0" type="line"/>
      <point x="199" y="720" type="line"/>
    </contour>
  </outline>
</glyph>
<glyph name="G" format="1">
  <advance width="614"/>
  <unicode hex="0047"/>
  <outline>
    <contour>
      <point x="593" y="553" type="curve"/>
      <point x="525" y="535" type="line"/>
      <point x="511" y="619"/>
      <point x="481" y="676"/>
      <point x="398" y="676" type="curve" smooth="yes"/>
      <point x="283" y="676"/>
      <point x="196" y="543"/>
      <point x="156" y="393" type="curve" smooth="yes"/>
      <point x="140" y="334"/>
      <point x="132" y="280"/>
      <point x="132" y="231" type="curve" smooth="yes"/>
      <point x="132" y="229" type="line" smooth="yes"/>
      <point x="132" y="126"/>
      <point x="175" y="44"/>
      <point x="262" y="44" type="curve" smooth="yes"/>
      <point x="351" y="44"/>
      <point x="423" y="132"/>
      <point x="479" y="292" type="curve"/>
      <point x="317" y="292" type="line"/>
      <point x="327" y="334" type="line"/>
      <point x="571" y="334" type="line"/>
      <point x="487" y="0" type="line"/>
      <point x="447" y="0" type="line"/>
      <point x="495" y="209" type="line"/>
      <point x="490" y="209" type="line"/>
      <point x="426" y="71"/>
      <point x="363" y="-12"/>
      <point x="254" y="-12" type="curve" smooth="yes"/>
      <point x="134" y="-12"/>
      <point x="61" y="81"/>
      <point x="61" y="229" type="curve" smooth="yes"/>
      <point x="61" y="232" type="line" smooth="yes"/>
      <point x="61" y="276"/>
      <point x="66" y="319"/>
      <point x="78" y="371" type="curve" smooth="yes"/>
      <point x="121" y="567"/>
      <point x="237" y="732"/>
      <point x="404" y="732" type="curve" smooth="yes"/>
      <point x="524" y="732"/>
      <point x="579" y="656"/>
    </contour>
  </outline>
</glyph>
<glyph name="I" format="1">
  <advance width="387"/>
  <unicode hex="0049"/>
  <outline>
    <contour>
      <point x="447" y="720" type="line"/>
      <point x="437" y="682" type="line"/>
      <point x="335" y="682" type="line"/>
      <point x="174" y="38" type="line"/>
      <point x="277" y="38" type="line"/>
      <point x="267" y="0" type="line"/>
      <point x="-9" y="0" type="line"/>
      <point x="0" y="38" type="line"/>
      <point x="103" y="38" type="line"/>
      <point x="263" y="682" type="line"/>
      <point x="161" y="682" type="line"/>
      <point x="171" y="720" type="line"/>
    </contour>
  </outline>
</glyph>
<glyph name="J" format="1">
  <advance width="483"/>
  <unicode hex="004A"/>
  <outline>
    <contour>
      <point x="519" y="720" type="line"/>
      <point x="391" y="205" type="line" smooth="yes"/>
      <point x="355" y="61"/>
      <point x="280" y="-12"/>
      <point x="162" y="-12" type="curve" smooth="yes"/>
      <point x="63" y="-12"/>
      <point x="1" y="40"/>
      <point x="1" y="124" type="curve" smooth="yes"/>
      <point x="1" y="142"/>
      <point x="3" y="161"/>
      <point x="8" y="184" type="curve"/>
      <point x="79" y="204" type="line"/>
      <point x="73" y="179"/>
      <point x="70" y="158"/>
      <point x="70" y="138" type="curve" smooth="yes"/>
      <point x="70" y="76"/>
      <point x="102" y="45"/>
      <point x="168" y="45" type="curve" smooth="yes"/>
      <point x="241" y="45"/>
      <point x="292" y="99"/>
      <point x="321" y="214" type="curve" smooth="yes"/>
      <point x="447" y="720" type="line"/>
    </contour>
  </outline>
</glyph>
<glyph name="L" format="1">
  <advance width="506"/>
  <unicode hex="004C"/>
  <outline>
    <contour>
      <point x="439" y="59" type="line"/>
      <point x="424" y="0" type="line"/>
      <point x="19" y="0" type="line"/>
      <point x="199" y="720" type="line"/>
      <point x="270" y="720" type="line"/>
      <point x="106" y="59" type="line"/>
    </contour>
  </outline>
</glyph>
<glyph name="M" format="1">
  <advance width="826"/>
  <unicode hex="004D"/>
  <outline>
    <contour>
      <point x="856" y="720" type="line"/>
      <point x="677" y="0" type="line"/>
      <point x="608" y="0" type="line"/>
      <point x="771" y="654" type="line"/>
      <point x="761" y="654" type="line"/>
      <point x="387" y="0" type="line"/>
      <point x="305" y="0" type="line"/>
      <point x="258" y="654" type="line"/>
      <point x="248" y="654" type="line"/>
      <point x="85" y="0" type="line"/>
      <point x="19" y="0" type="line"/>
      <point x="199" y="720" type="line"/>
      <point x="319" y="720" type="line"/>
      <point x="362" y="84" type="line"/>
      <point x="370" y="84" type="line"/>
      <point x="731" y="720" type="line"/>
    </contour>
  </outline>
</glyph>
<glyph name="Q" format="1">
  <advance width="613"/>
  <unicode hex="0051"/>
  <outline>
    <contour>
      <point x="603" y="488" type="line" smooth="yes"/>
      <point x="603" y="440"/>
      <point x="596" y="391"/>
      <point x="584" y="339" type="curve" smooth="yes"/>
      <point x="558" y="221"/>
      <point x="502" y="114"/>
      <point x="425" y="50" type="curve"/>
      <point x="451" y="-5" type="line" smooth="yes"/>
      <point x="468" y="-41"/>
      <point x="488" y="-54"/>
      <point x="523" y="-54" type="curve" smooth="yes"/>
      <point x="537" y="-54"/>
      <point x="550" y="-51"/>
      <point x="564" y="-47" type="curve"/>
      <point x="551" y="-97" type="line"/>
      <point x="537" y="-101"/>
      <point x="522" y="-104"/>
      <point x="505" y="-104" type="curve" smooth="yes"/>
      <point x="456" y="-104"/>
      <point x="424" y="-88"/>
      <point x="401" y="-34" type="curve" smooth="yes"/>
      <point x="379" y="18" type="line"/>
      <point x="343" y="-1"/>
      <point x="304" y="-12"/>
      <point x="263" y="-12" type="curve" smooth="yes"/>
      <point x="135" y="-12"/>
      <point x="61" y="81"/>
      <point x="61" y="229" type="curve" smooth="yes"/>
      <point x="61" y="232" type="line" smooth="yes"/>
      <point x="61" y="280"/>
      <point x="67" y="329"/>
      <point x="79" y="381" type="curve" smooth="yes"/>
      <point x="121" y="571"/>
      <point x="238" y="732"/>
      <point x="401" y="732" type="curve" smooth="yes"/>
      <point x="529" y="732"/>
      <point x="603" y="639"/>
      <point x="603" y="491" type="curve" smooth="yes"/>
    </contour>
    <contour>
      <point x="531" y="489" type="curve" smooth="yes"/>
      <point x="531" y="491" type="line" smooth="yes"/>
      <point x="531" y="593"/>
      <point x="490" y="676"/>
      <point x="395" y="676" type="curve" smooth="yes"/>
      <point x="284" y="676"/>
      <point x="197" y="546"/>
      <point x="157" y="398" type="curve" smooth="yes"/>
      <point x="141" y="339"/>
      <point x="131" y="278"/>
      <point x="131" y="228" type="curve" smooth="yes"/>
      <point x="131" y="226" type="line" smooth="yes"/>
      <point x="131" y="123"/>
      <point x="173" y="41"/>
      <point x="268" y="41" type="curve" smooth="yes"/>
      <point x="302" y="41"/>
      <point x="332" y="51"/>
      <point x="360" y="70" type="curve"/>
      <point x="306" y="196" type="line"/>
      <point x="343" y="215" type="line"/>
      <point x="397" y="101" type="line"/>
      <point x="447" y="153"/>
      <point x="482" y="232"/>
      <point x="506" y="319" type="curve" smooth="yes"/>
      <point x="522" y="378"/>
      <point x="531" y="439"/>
    </contour>
  </outline>
</glyph>
<glyph name="R" format="1">
  <advance width="594"/>
  <unicode hex="0052"/>
  <outline>
    <contour>
      <point x="603" y="555" type="curve" smooth="yes"/>
      <point x="603" y="423"/>
      <point x="505" y="340"/>
      <point x="363" y="327" type="curve"/>
      <point x="501" y="0" type="line"/>
      <point x="423" y="0" type="line"/>
      <point x="292" y="320" type="line"/>
      <point x="170" y="320" type="line"/>
      <point x="91" y="0" type="line"/>
      <point x="19" y="0" type="line"/>
      <point x="199" y="720" type="line"/>
      <point x="395" y="720" type="line" smooth="yes"/>
      <point x="529" y="720"/>
      <point x="603" y="665"/>
    </contour>
    <contour>
      <point x="532" y="549" type="curve" smooth="yes"/>
      <point x="532" y="626"/>
      <point x="485" y="666"/>
      <point x="383" y="666" type="curve" smooth="yes"/>
      <point x="255" y="666" type="line"/>
      <point x="181" y="373" type="line"/>
      <point x="312" y="373" type="line" smooth="yes"/>
      <point x="445" y="373"/>
      <point x="532" y="434"/>
    </contour>
  </outline>
</glyph>
<glyph name="S" format="1">
  <advance width="559"/>
  <unicode hex="0053"/>
  <outline>
    <contour>
      <point x="570" y="576" type="curve"/>
      <point x="511" y="547" type="line"/>
      <point x="489" y="628"/>
      <point x="442" y="676"/>
      <point x="351" y="676" type="curve" smooth="yes"/>
      <point x="262" y="676"/>
      <point x="209" y="617"/>
      <point x="209" y="551" type="curve" smooth="yes"/>
      <point x="209" y="490"/>
      <point x="237" y="454"/>
      <point x="337" y="402" type="curve" smooth="yes"/>
      <point x="452" y="341"/>
      <point x="494" y="289"/>
      <point x="494" y="200" type="curve" smooth="yes"/>
      <point x="494" y="71"/>
      <point x="387" y="-12"/>
      <point x="259" y="-12" type="curve" smooth="yes"/>
      <point x="123" y="-12"/>
      <point x="36" y="55"/>
      <point x="16" y="169" type="curve"/>
      <point x="75" y="198" type="line"/>
      <point x="90" y="96"/>
      <point x="159" y="44"/>
      <point x="264" y="44" type="curve" smooth="yes"/>
      <point x="364" y="44"/>
      <point x="424" y="111"/>
      <point x="424" y="192" type="curve" smooth="yes"/>
      <point x="424" y="253"/>
      <point x="396" y="292"/>
      <point x="296" y="345" type="curve" smooth="yes"/>
      <point x="191" y="400"/>
      <point x="139" y="450"/>
      <point x="139" y="543" type="curve" smooth="yes"/>
      <point x="139" y="652"/>
      <point x="233" y="732"/>
      <point x="356" y="732" type="curve" smooth="yes"/>
      <point x="472" y="732"/>
      <point x="546" y="674"/>
    </contour>
  </outline>
</glyph>
<glyph name="Z" format="1">
  <advance width="543"/>
  <unicode hex="005A"/>
  <outline>
    <contour>
      <point x="622" y="720" type="line"/>
      <point x="609" y="671" type="line"/>
      <point x="67" y="57" type="line"/>
      <point x="456" y="57" type="line"/>
      <point x="442" y="0" type="line"/>
      <point x="-28" y="0" type="line"/>
      <point x="-16" y="49" type="line"/>
      <point x="526" y="663" type="line"/>
      <point x="157" y="663" type="line"/>
      <point x="171" y="720" type="line"/>
    </contour>
  </outline>
</glyph>
<glyph name="bracketleft" format="1">
  <advance width="339"/>
  <unicode hex="005B"/>
  <outline>
    <contour>
      <point x="430" y="720" type="line"/>
      <point x="420" y="681" type="line"/>
      <point x="240" y="688" type="line"/>
      <point x="58" y="-48" type="line"/>
      <point x="239" y="-41" type="line"/>
      <point x="230" y="-80" type="line"/>
      <point x="-17" y="-88" type="line"/>
      <point x="185" y="728" type="line"/>
    </contour>
  </outline>
</glyph>
<glyph name="backslash" format="1">
  <advance width="379"/>
  <unicode hex="005C"/>
  <outline>
    <contour>
      <point x="304" y="-95" type="line"/>
      <point x="243" y="-95" type="line"/>
      <point x="135" y="735" type="line"/>
      <point x="195" y="735" type="line"/>
    </contour>
  </outline>
</glyph>
<glyph name="bracketright" format="1">
  <advance width="339"/>
  <unicode hex="005D"/>
  <outline>
    <contour>
      <point x="387" y="728" type="line"/>
      <point x="185" y="-88" type="line"/>
      <point x="-59" y="-80" type="line"/>
      <point x="-50" y="-41" type="line"/>
      <point x="130" y="-48" type="line"/>
      <point x="312" y="688" type="line"/>
      <point x="131" y="681" type="line"/>
      <point x="141" y="720" type="line"/>
    </contour>
  </outline>
</glyph>
<glyph name="asciicircum" format="1">
  <advance width="550"/>
  <unicode hex="005E"/>
  <outline>
    <contour>
      <point x="534" y="407" type="line"/>
      <point x="490" y="407" type="line"/>
      <point x="375" y="661" type="line"/>
      <point x="135" y="407" type="line"/>
      <point x="85" y="407" type="line"/>
      <point x="355" y="725" type="line"/>
      <point x="423" y="725" type="line"/>
    </contour>
  </outline>
</glyph>
<glyph name="d" format="1">
  <advance width="509"/>
  <unicode hex="0064"/>
  <outline>
    <contour>
      <point x="565" y="761" type="line"/>
      <point x="378" y="13" type="line"/>
      <point x="307" y="-9" type="line"/>
      <point x="342" y="134" type="line"/>
      <point x="337" y="134" type="line"/>
      <point x="255" y="27"/>
      <point x="204" y="-10"/>
      <point x="148" y="-10" type="curve" smooth="yes"/>
      <point x="67" y="-10"/>
      <point x="32" y="61"/>
      <point x="32" y="152" type="curve" smooth="yes"/>
      <point x="32" y="154" type="line" smooth="yes"/>
      <point x="32" y="361"/>
      <point x="155" y="526"/>
      <point x="268" y="526" type="curve" smooth="yes"/>
      <point x="335" y="526"/>
      <point x="365" y="488"/>
      <point x="404" y="404" type="curve"/>
      <point x="410" y="404" type="line"/>
      <point x="493" y="738" type="line"/>
    </contour>
    <contour>
      <point x="389" y="323" type="curve" smooth="yes"/>
      <point x="389" y="402"/>
      <point x="342" y="480"/>
      <point x="282" y="480" type="curve" smooth="yes"/>
      <point x="193" y="480"/>
      <point x="99" y="326"/>
      <point x="99" y="163" type="curve" smooth="yes"/>
      <point x="99" y="94"/>
      <point x="116" y="39"/>
      <point x="179" y="39" type="curve" smooth="yes"/>
      <point x="265" y="39"/>
      <point x="389" y="238"/>
    </contour>
  </outline>
</glyph>
<glyph name="e" format="1">
  <advance width="454"/>
  <unicode hex="0065"/>
  <outline>
    <contour>
      <point x="428" y="358" type="curve" smooth="yes"/>
      <point x="428" y="324"/>
      <point x="422" y="281"/>
      <point x="412" y="246" type="curve"/>
      <point x="102" y="246" type="line"/>
      <point x="98" y="223"/>
      <point x="96" y="199"/>
      <point x="96" y="174" type="curve" smooth="yes"/>
      <point x="96" y="172" type="line" smooth="yes"/>
      <point x="96" y="88"/>
      <point x="134" y="39"/>
      <point x="200" y="39" type="curve" smooth="yes"/>
      <point x="252" y="39"/>
      <point x="293" y="63"/>
      <point x="343" y="100" type="curve"/>
      <point x="362" y="58" type="line"/>
      <point x="310" y="16"/>
      <point x="260" y="-10"/>
      <point x="191" y="-10" type="curve" smooth="yes"/>
      <point x="94" y="-10"/>
      <point x="33" y="57"/>
      <point x="33" y="168" type="curve" smooth="yes"/>
      <point x="33" y="170" type="line" smooth="yes"/>
      <point x="33" y="207"/>
      <point x="38" y="246"/>
      <point x="47" y="282" type="curve" smooth="yes"/>
      <point x="84" y="426"/>
      <point x="178" y="527"/>
      <point x="288" y="527" type="curve" smooth="yes"/>
      <point x="393" y="527"/>
      <point x="428" y="443"/>
    </contour>
    <contour>
      <point x="366" y="358" type="curve" smooth="yes"/>
      <point x="366" y="425"/>
      <point x="348" y="482"/>
      <point x="284" y="482" type="curve" smooth="yes"/>
      <point x="211" y="482"/>
      <point x="138" y="398"/>
      <point x="111" y="285" type="curve"/>
      <point x="358" y="285" type="line"/>
      <point x="364" y="313"/>
      <point x="366" y="335"/>
    </contour>
  </outline>
</glyph>
<glyph name="g" format="1">
  <advance width="509"/>
  <unicode hex="0067"/>
  <outline>
    <contour>
      <point x="500" y="503" type="line"/>
      <point x="387" y="47" type="line" smooth="yes"/>
      <point x="346" y="-119"/>
      <point x="274" y="-190"/>
      <point x="124" y="-190" type="curve" smooth="yes"/>
      <point x="66" y="-190"/>
      <point x="19" y="-179"/>
      <point x="-14" y="-165" type="curve"/>
      <point x="0" y="-108" type="line"/>
      <point x="23" y="-108" type="line"/>
      <point x="37" y="-128"/>
      <point x="68" y="-149"/>
      <point x="134" y="-149" type="curve" smooth="yes"/>
      <point x="232" y="-149"/>
      <point x="286" y="-90"/>
      <point x="315" y="26" type="curve" smooth="yes"/>
      <point x="342" y="134" type="line"/>
      <point x="337" y="134" type="line"/>
      <point x="255" y="27"/>
      <point x="204" y="-10"/>
      <point x="148" y="-10" type="curve" smooth="yes"/>
      <point x="67" y="-10"/>
      <point x="32" y="61"/>
      <point x="32" y="152" type="curve" smooth="yes"/>
      <point x="32" y="154" type="line" smooth="yes"/>
      <point x="32" y="361"/>
      <point x="155" y="526"/>
      <point x="268" y="526" type="curve" smooth="yes"/>
      <point x="335" y="526"/>
      <point x="365" y="488"/>
      <point x="404" y="404" type="curve"/>
      <point x="410" y="404" type="line"/>
      <point x="439" y="526" type="line"/>
    </contour>
    <contour>
      <point x="389" y="323" type="curve" smooth="yes"/>
      <point x="389" y="402"/>
      <point x="342" y="480"/>
      <point x="282" y="480" type="curve" smooth="yes"/>
      <point x="193" y="480"/>
      <point x="99" y="326"/>
      <point x="99" y="163" type="curve" smooth="yes"/>
      <point x="99" y="94"/>
      <point x="116" y="39"/>
      <point x="179" y="39" type="curve" smooth="yes"/>
      <point x="265" y="39"/>
      <point x="389" y="238"/>
    </contour>
  </outline>
</glyph>
<glyph name="i" format="1">
  <advance width="224"/>
  <unicode hex="0069"/>
  <outline>
    <contour>
      <point x="268" y="722" type="line"/>
      <point x="247" y="637" type="line"/>
      <point x="166" y="637" type="line"/>
      <point x="187" y="722" type="line"/>
    </contour>
    <contour>
      <point x="210" y="517" type="line"/>
      <point x="81" y="0" type="line"/>
      <point x="14" y="0" type="line"/>
      <point x="143" y="517" type="line"/>
    </contour>
  </outline>
</glyph>
<glyph name="j" format="1">
  <advance width="224"/>
  <unicode hex="006A"/>
  <outline>
    <contour>
      <point x="268" y="722" type="line"/>
      <point x="247" y="637" type="line"/>
      <point x="166" y="637" type="line"/>
      <point x="187" y="722" type="line"/>
    </contour>
    <contour>
      <point x="210" y="517" type="line"/>
      <point x="60" y="-83" type="line" smooth="yes"/>
      <point x="39" y="-165"/>
      <point x="-8" y="-190"/>
      <point x="-73" y="-190" type="curve" smooth="yes"/>
      <point x="-102" y="-190"/>
      <point x="-125" y="-184"/>
      <point x="-147" y="-175" type="curve"/>
      <point x="-135" y="-127" type="line"/>
      <point x="-117" y="-137"/>
      <point x="-99" y="-142"/>
      <point x="-79" y="-142" type="curve" smooth="yes"/>
      <point x="-37" y="-142"/>
      <point x="-16" y="-121"/>
      <point x="-4" y="-73" type="curve" smooth="yes"/>
      <point x="143" y="517" type="line"/>
    </contour>
  </outline>
</glyph>
<glyph name="k" format="1">
  <advance width="455"/>
  <unicode hex="006B"/>
  <outline>
    <contour>
      <point x="503" y="517" type="line"/>
      <point x="226" y="261" type="line"/>
      <point x="382" y="0" type="line"/>
      <point x="308" y="0" type="line"/>
      <point x="157" y="261" type="line"/>
      <point x="157" y="267" type="line"/>
      <point x="425" y="517" type="line"/>
    </contour>
    <contour>
      <point x="261" y="761" type="line"/>
      <point x="72" y="0" type="line"/>
      <point x="5" y="0" type="line"/>
      <point x="189" y="738" type="line"/>
    </contour>
  </outline>
</glyph>
<glyph name="o" format="1">
  <advance width="484"/>
  <unicode hex="006F"/>
  <outline>
    <contour>
      <point x="451" y="346" type="line" smooth="yes"/>
      <point x="451" y="313"/>
      <point x="447" y="276"/>
      <point x="438" y="240" type="curve" smooth="yes"/>
      <point x="405" y="105"/>
      <point x="318" y="-10"/>
      <point x="192" y="-10" type="curve" smooth="yes"/>
      <point x="98" y="-10"/>
      <point x="33" y="52"/>
      <point x="33" y="168" type="curve" smooth="yes"/>
      <point x="33" y="170" type="line" smooth="yes"/>
      <point x="33" y="204"/>
      <point x="37" y="241"/>
      <point x="46" y="277" type="curve" smooth="yes"/>
      <point x="79" y="412"/>
      <point x="166" y="527"/>
      <point x="292" y="527" type="curve" smooth="yes"/>
      <point x="386" y="527"/>
      <point x="451" y="465"/>
      <point x="451" y="348" type="curve" smooth="yes"/>
    </contour>
    <contour>
      <point x="385" y="349" type="curve" smooth="yes"/>
      <point x="385" y="351" type="line" smooth="yes"/>
      <point x="385" y="439"/>
      <point x="348" y="481"/>
      <point x="289" y="481" type="curve" smooth="yes"/>
      <point x="203" y="481"/>
      <point x="142" y="391"/>
      <point x="115" y="283" type="curve" smooth="yes"/>
      <point x="104" y="241"/>
      <point x="99" y="204"/>
      <point x="99" y="168" type="curve" smooth="yes"/>
      <point x="99" y="166" type="line" smooth="yes"/>
      <point x="99" y="78"/>
      <point x="136" y="36"/>
      <point x="195" y="36" type="curve" smooth="yes"/>
      <point x="281" y="36"/>
      <point x="342" y="126"/>
      <point x="369" y="234" type="curve" smooth="yes"/>
      <point x="380" y="276"/>
      <point x="385" y="313"/>
    </contour>
  </outline>
</glyph>
<glyph name="t" format="1">
  <advance width="354"/>
  <unicode hex="0074"/>
  <outline>
    <contour>
      <point x="368" y="512" type="line"/>
      <point x="356" y="464" type="line"/>
      <point x="226" y="464" type="line"/>
      <point x="143" y="131" type="line" smooth="yes"/>
      <point x="139" y="116"/>
      <point x="136" y="101"/>
      <point x="136" y="89" type="curve" smooth="yes"/>
      <point x="136" y="59"/>
      <point x="157" y="42"/>
      <point x="190" y="42" type="curve" smooth="yes"/>
      <point x="217" y="42"/>
      <point x="245" y="51"/>
      <point x="286" y="72" type="curve"/>
      <point x="271" y="15" type="line"/>
      <point x="232" y="-2"/>
      <point x="202" y="-10"/>
      <point x="164" y="-10" type="curve" smooth="yes"/>
      <point x="104" y="-10"/>
      <point x="68" y="21"/>
      <point x="68" y="73" type="curve" smooth="yes"/>
      <point x="68" y="87"/>
      <point x="71" y="107"/>
      <point x="75" y="124" type="curve" smooth="yes"/>
      <point x="160" y="464" type="line"/>
      <point x="66" y="464" type="line"/>
      <point x="78" y="512" type="line"/>
      <point x="172" y="512" type="line"/>
      <point x="221" y="709" type="line"/>
      <point x="292" y="731" type="line"/>
      <point x="238" y="512" type="line"/>
    </contour>
  </outline>
</glyph>
<glyph name="v" format="1">
  <advance width="458"/>
  <unicode hex="0076"/>
  <outline>
    <contour>
      <point x="497" y="517" type="line"/>
      <point x="198" y="-6" type="line"/>
      <point x="129" y="-6" type="line"/>
      <point x="90" y="517" type="line"/>
      <point x="157" y="517" type="line"/>
      <point x="179" y="64" type="line"/>
      <point x="429" y="517" type="line"/>
    </contour>
  </outline>
</glyph>
<glyph name="w" format="1">
  <advance width="749"/>
  <unicode hex="0077"/>
  <outline>
    <contour>
      <point x="786" y="517" type="line"/>
      <point x="497" y="-4" type="line"/>
      <point x="429" y="-4" type="line"/>
      <point x="419" y="434" type="line"/>
      <point x="189" y="-4" type="line"/>
      <point x="121" y="-4" type="line"/>
      <point x="93" y="517" type="line"/>
      <point x="159" y="517" type="line"/>
      <point x="173" y="68" type="line"/>
      <point x="406" y="517" type="line"/>
      <point x="471" y="517" type="line"/>
      <point x="479" y="68" type="line"/>
      <point x="718" y="517" type="line"/>
    </contour>
  </outline>
</glyph>
<glyph name="y" format="1">
  <advance width="458"/>
  <unicode hex="0079"/>
  <outline>
    <contour>
      <point x="497" y="517" type="line"/>
      <point x="150" y="-87" type="line" smooth="yes"/>
      <point x="102" y="-170"/>
      <point x="62" y="-193"/>
      <point x="7" y="-193" type="curve" smooth="yes"/>
      <point x="-35" y="-193"/>
      <point x="-63" y="-184"/>
      <point x="-88" y="-171" type="curve"/>
      <point x="-75" y="-117" type="line"/>
      <point x="-53" y="-117" type="line"/>
      <point x="-42" y="-140"/>
      <point x="-26" y="-152"/>
      <point x="5" y="-152" type="curve" smooth="yes"/>
      <point x="32" y="-152"/>
      <point x="56" y="-138"/>
      <point x="85" y="-90" type="curve" smooth="yes"/>
      <point x="132" y="-12" type="line"/>
      <point x="90" y="517" type="line"/>
      <point x="156" y="517" type="line"/>
      <point x="180" y="61" type="line"/>
      <point x="429" y="517" type="line"/>
    </contour>
  </outline>
</glyph>
<glyph name="exclamdown" format="1">
  <advance width="242"/>
  <unicode hex="00A1"/>
  <outline>
    <contour>
      <point x="272" y="678" type="curve" smooth="yes"/>
      <point x="272" y="650"/>
      <point x="252" y="630"/>
      <point x="224" y="630" type="curve" smooth="yes"/>
      <point x="195" y="630"/>
      <point x="175" y="650"/>
      <point x="175" y="678" type="curve" smooth="yes"/>
      <point x="175" y="706"/>
      <point x="195" y="727"/>
      <point x="224" y="727" type="curve" smooth="yes"/>
      <point x="252" y="727"/>
      <point x="272" y="706"/>
    </contour>
    <contour>
      <point x="202" y="513" type="line"/>
      <point x="98" y="0" type="line"/>
      <point x="14" y="0" type="line"/>
      <point x="167" y="513" type="line"/>
    </contour>
  </outline>
</glyph>
<glyph name="cent" format="1">
  <advance width="458"/>
  <unicode hex="00A2"/>
  <outline>
    <contour>
      <point x="496" y="612" type="line"/>
      <point x="138" y="55" type="line"/>
      <point x="155" y="42"/>
      <point x="177" y="36"/>
      <point x="201" y="36" type="curve" smooth="yes"/>
      <point x="251" y="36"/>
      <point x="293" y="68"/>
      <point x="337" y="127" type="curve"/>
      <point x="383" y="104" type="line"/>
      <point x="333" y="33"/>
      <point x="272" y="-10"/>
      <point x="195" y="-10" type="curve" smooth="yes"/>
      <point x="163" y="-10"/>
      <point x="134" y="-3"/>
      <point x="110" y="12" type="curve"/>
      <point x="41" y="-95" type="line"/>
      <point x="-3" y="-95" type="line"/>
      <point x="82" y="33" type="line"/>
      <point x="51" y="63"/>
      <point x="33" y="108"/>
      <point x="33" y="168" type="curve" smooth="yes"/>
      <point x="33" y="170" type="line" smooth="yes"/>
      <point x="33" y="205"/>
      <point x="38" y="244"/>
      <point x="47" y="281" type="curve" smooth="yes"/>
      <point x="81" y="414"/>
      <point x="166" y="527"/>
      <point x="295" y="527" type="curve" smooth="yes"/>
      <point x="333" y="527"/>
      <point x="360" y="519"/>
      <point x="384" y="505" type="curve"/>
      <point x="451" y="612" type="line"/>
    </contour>
    <contour>
      <point x="356" y="461" type="line"/>
      <point x="338" y="474"/>
      <point x="318" y="481"/>
      <point x="289" y="481" type="curve" smooth="yes"/>
      <point x="205" y="481"/>
      <point x="141" y="396"/>
      <point x="111" y="284" type="curve" smooth="yes"/>
      <point x="100" y="243"/>
      <point x="94" y="207"/>
      <point x="94" y="169" type="curve" smooth="yes"/>
      <point x="94" y="167" type="line" smooth="yes"/>
      <point x="94" y="130"/>
      <point x="102" y="101"/>
      <point x="116" y="79" type="curve"/>
    </contour>
  </outline>
</glyph>
<glyph name="copyright" format="1">
  <advance width="835"/>
  <unicode hex="00A9"/>
  <outline>
    <contour>
      <point x="815" y="360" type="curve" smooth="yes"/>
      <point x="815" y="150"/>
      <point x="653" y="-12"/>
      <point x="443" y="-12" type="curve" smooth="yes"/>
      <point x="232" y="-12"/>
      <point x="71" y="149"/>
      <point x="71" y="360" type="curve" smooth="yes"/>
      <point x="71" y="570"/>
      <point x="232" y="732"/>
      <point x="443" y="732" type="curve" smooth="yes"/>
      <point x="654" y="732"/>
      <point x="815" y="571"/>
    </contour>
    <contour>
      <point x="779" y="360" type="curve" smooth="yes"/>
      <point x="779" y="553"/>
      <point x="636" y="700"/>
      <point x="443" y="700" type="curve" smooth="yes"/>
      <point x="250" y="700"/>
      <point x="107" y="553"/>
      <point x="107" y="360" type="curve" smooth="yes"/>
      <point x="107" y="167"/>
      <point x="250" y="20"/>
      <point x="443" y="20" type="curve" smooth="yes"/>
      <point x="636" y="20"/>
      <point x="779" y="167"/>
    </contour>
    <contour>
      <point x="579" y="287" type="line"/>
      <point x="560" y="207"/>
      <point x="518" y="157"/>
      <point x="440" y="157" type="curve" smooth="yes"/>
      <point x="349" y="157"/>
      <point x="292" y="235"/>
      <point x="292" y="361" type="curve" smooth="yes"/>
      <point x="292" y="368" type="line" smooth="yes"/>
      <point x="292" y="494"/>
      <point x="348" y="572"/>
      <point x="441" y="572" type="curve" smooth="yes"/>
      <point x="516" y="572"/>
      <point x="558" y="528"/>
      <point x="577" y="451" type="curve"/>
      <point x="526" y="437" type="line"/>
      <point x="510" y="498"/>
      <point x="486" y="528"/>
      <point x="441" y="528" type="curve" smooth="yes"/>
      <point x="376" y="528"/>
      <point x="347" y="462"/>
      <point x="347" y="372" type="curve" smooth="yes"/>
      <point x="347" y="359" type="line" smooth="yes"/>
      <point x="347" y="269"/>
      <point x="376" y="202"/>
      <point x="441" y="202" type="curve" smooth="yes"/>
      <point x="489" y="202"/>
      <point x="515" y="237"/>
      <point x="529" y="301" type="curve"/>
    </contour>
  </outline>
</glyph>
<glyph name="guillemotleft" format="1">
  <advance width="456"/>
  <unicode hex="00AB"/>
  <outline>
    <contour>
      <point x="469" y="439" type="line"/>
      <point x="296" y="254" type="line"/>
      <point x="375" y="78" type="line"/>
      <point x="333" y="78" type="line"/>
      <point x="220" y="258" type="line"/>
      <point x="421" y="439" type="line"/>
    </contour>
    <contour>
      <point x="277" y="439" type="line"/>
      <point x="104" y="254" type="line"/>
      <point x="183" y="78" type="line"/>
      <point x="141" y="78" type="line"/>
      <point x="28" y="258" type="line"/>
      <point x="229" y="439" type="line"/>
    </contour>
  </outline>
</glyph>
<glyph name="degree" format="1">
  <advance width="400"/>
  <unicode hex="00B0"/>
  <outline>
    <contour>
      <point x="403" y="578" type="curve" smooth="yes"/>
      <point x="403" y="493"/>
      <point x="339" y="432"/>
      <point x="255" y="432" type="curve" smooth="yes"/>
      <point x="170" y="432"/>
      <point x="106" y="493"/>
      <point x="106" y="578" type="curve" smooth="yes"/>
      <point x="106" y="663"/>
      <point x="170" y="724"/>
      <point x="255" y="724" type="curve" smooth="yes"/>
      <point x="339" y="724"/>
      <point x="403" y="663"/>
    </contour>
    <contour>
      <point x="357" y="578" type="curve" smooth="yes"/>
      <point x="357" y="640"/>
      <point x="314" y="684"/>
      <point x="255" y="684" type="curve" smooth="yes"/>
      <point x="195" y="684"/>
      <point x="152" y="640"/>
      <point x="152" y="578" type="curve" smooth="yes"/>
      <point x="152" y="516"/>
      <point x="195" y="471"/>
      <point x="255" y="471" type="curve" smooth="yes"/>
      <point x="314" y="471"/>
      <point x="357" y="516"/>
    </contour>
  </outline>
</glyph>
<glyph name="periodcentered" format="1">
  <advance width="186"/>
  <unicode hex="00B7"/>
  <outline>
    <contour>
      <point x="147" y="278" type="curve" smooth="yes"/>
      <point x="147" y="249"/>
      <point x="126" y="228"/>
      <point x="97" y="228" type="curve" smooth="yes"/>
      <point x="69" y="228"/>
      <point x="48" y="249"/>
      <point x="48" y="278" type="curve" smooth="yes"/>
      <point x="48" y="307"/>
      <point x="69" y="328"/>
      <point x="97" y="328" type="curve" smooth="yes"/>
      <point x="126" y="328"/>
      <point x="147" y="307"/>
    </contour>
  </outline>
</glyph>
<glyph name="cedilla" format="1">
  <advance width="500"/>
  <unicode hex="00B8"/>
  <outline>
    <contour>
      <point x="278" y="-103" type="curve" smooth="yes"/>
      <point x="278" y="-159"/>
      <point x="215" y="-190"/>
      <point x="117" y="-190" type="curve" smooth="yes"/>
      <point x="94" y="-190"/>
      <point x="67" y="-189"/>
      <point x="44" y="-186" type="curve"/>
      <point x="51" y="-162" type="line"/>
      <point x="68" y="-164"/>
      <point x="86" y="-166"/>
      <point x="101" y="-166" type="curve" smooth="yes"/>
      <point x="181" y="-166"/>
      <point x="221" y="-146"/>
      <point x="221" y="-117" type="curve" smooth="yes"/>
      <point x="221" y="-98"/>
      <point x="206" y="-88"/>
      <point x="183" y="-88" type="curve" smooth="yes"/>
      <point x="164" y="-88"/>
      <point x="148" y="-92"/>
      <point x="127" y="-100" type="curve"/>
      <point x="108" y="-85" type="line"/>
      <point x="183" y="0" type="line"/>
      <point x="221" y="0" type="line"/>
      <point x="170" y="-59" type="line"/>
      <point x="184" y="-55"/>
      <point x="199" y="-53"/>
      <point x="215" y="-53" type="curve" smooth="yes"/>
      <point x="252" y="-53"/>
      <point x="278" y="-71"/>
    </contour>
  </outline>
</glyph>
<glyph name="guillemotright" format="1">
  <advance width="456"/>
  <unicode hex="00BB"/>
  <outline>
    <contour>
      <point x="428" y="258" type="line"/>
      <point x="227" y="78" type="line"/>
      <point x="179" y="78" type="line"/>
      <point x="352" y="263" type="line"/>
      <point x="273" y="439" type="line"/>
      <point x="315" y="439" type="line"/>
    </contour>
    <contour>
      <point x="236" y="258" type="line"/>
      <point x="35" y="78" type="line"/>
      <point x="-13" y="78" type="line"/>
      <point x="160" y="263" type="line"/>
      <point x="81" y="439" type="line"/>
      <point x="123" y="439" type="line"/>
    </contour>
  </outline>
</glyph>
<glyph name="questiondown" format="1">
  <advance width="442"/>
  <unicode hex="00BF"/>
  <outline>
    <contour>
      <point x="390" y="681" type="curve" smooth="yes"/>
      <point x="390" y="653"/>
      <point x="369" y="632"/>
      <point x="341" y="632" type="curve" smooth="yes"/>
      <point x="313" y="632"/>
      <point x="292" y="653"/>
      <point x="292" y="681" type="curve" smooth="yes"/>
      <point x="292" y="709"/>
      <point x="313" y="729"/>
      <point x="341" y="729" type="curve" smooth="yes"/>
      <point x="369" y="729"/>
      <point x="390" y="709"/>
    </contour>
    <contour>
      <point x="380" y="115" type="line"/>
      <point x="324" y="34"/>
      <point x="255" y="-10"/>
      <point x="172" y="-10" type="curve" smooth="yes"/>
      <point x="74" y="-10"/>
      <point x="12" y="43"/>
      <point x="12" y="124" type="curve" smooth="yes"/>
      <point x="12" y="213"/>
      <point x="66" y="266"/>
      <point x="161" y="332" type="curve" smooth="yes"/>
      <point x="235" y="384"/>
      <point x="259" y="416"/>
      <point x="284" y="516" type="curve"/>
      <point x="329" y="516" type="line"/>
      <point x="306" y="389"/>
      <point x="279" y="350"/>
      <point x="194" y="291" type="curve" smooth="yes"/>
      <point x="128" y="246"/>
      <point x="82" y="197"/>
      <point x="82" y="130" type="curve" smooth="yes"/>
      <point x="82" y="73"/>
      <point x="124" y="46"/>
      <point x="180" y="46" type="curve" smooth="yes"/>
      <point x="240" y="46"/>
      <point x="284" y="76"/>
      <point x="332" y="145" type="curve"/>
    </contour>
  </outline>
</glyph>
<glyph name="Ccedilla" format="1">
  <advance width="575"/>
  <unicode hex="00C7"/>
  <outline>
    <contour>
      <point x="590" y="509" type="curve"/>
      <point x="523" y="495" type="line"/>
      <point x="524" y="611"/>
      <point x="486" y="676"/>
      <point x="397" y="676" type="curve" smooth="yes"/>
      <point x="283" y="676"/>
      <point x="196" y="543"/>
      <point x="156" y="393" type="curve" smooth="yes"/>
      <point x="140" y="334"/>
      <point x="132" y="281"/>
      <point x="132" y="231" type="curve" smooth="yes"/>
      <point x="132" y="229" type="line" smooth="yes"/>
      <point x="132" y="126"/>
      <point x="173" y="44"/>
      <point x="267" y="44" type="curve" smooth="yes"/>
      <point x="350" y="44"/>
      <point x="408" y="106"/>
      <point x="457" y="211" type="curve"/>
      <point x="519" y="189" type="line"/>
      <point x="459" y="61"/>
      <point x="379" y="-9"/>
      <point x="266" y="-12" type="curve"/>
      <point x="226" y="-59" type="line"/>
      <point x="240" y="-55"/>
      <point x="255" y="-53"/>
      <point x="270" y="-53" type="curve" smooth="yes"/>
      <point x="307" y="-53"/>
      <point x="334" y="-71"/>
      <point x="334" y="-103" type="curve" smooth="yes"/>
      <point x="334" y="-159"/>
      <point x="271" y="-190"/>
      <point x="172" y="-190" type="curve" smooth="yes"/>
      <point x="149" y="-190"/>
      <point x="123" y="-189"/>
      <point x="100" y="-186" type="curve"/>
      <point x="106" y="-162" type="line"/>
      <point x="124" y="-164"/>
      <point x="142" y="-166"/>
      <point x="157" y="-166" type="curve" smooth="yes"/>
      <point x="237" y="-166"/>
      <point x="276" y="-146"/>
      <point x="276" y="-117" type="curve" smooth="yes"/>
      <point x="276" y="-98"/>
      <point x="262" y="-88"/>
      <point x="238" y="-88" type="curve" smooth="yes"/>
      <point x="220" y="-88"/>
      <point x="203" y="-92"/>
      <point x="183" y="-100" type="curve"/>
      <point x="164" y="-85" type="line"/>
      <point x="230" y="-10" type="line"/>
      <point x="121" y="3"/>
      <point x="61" y="93"/>
      <point x="61" y="229" type="curve" smooth="yes"/>
      <point x="61" y="232" type="line" smooth="yes"/>
      <point x="61" y="276"/>
      <point x="66" y="319"/>
      <point x="78" y="371" type="curve" smooth="yes"/>
      <point x="121" y="567"/>
      <point x="237" y="732"/>
      <point x="403" y="732" type="curve" smooth="yes"/>
      <point x="533" y="732"/>
      <point x="594" y="648"/>
    </contour>
  </outline>
</glyph>
<glyph name="Eth" format="1">
  <advance width="653"/>
  <unicode hex="00D0"/>
  <outline>
    <contour>
      <point x="639" y="462" type="line" smooth="yes"/>
      <point x="639" y="419"/>
      <point x="635" y="383"/>
      <point x="626" y="342" type="curve" smooth="yes"/>
      <point x="576" y="125"/>
      <point x="419" y="0"/>
      <point x="227" y="0" type="curve" smooth="yes"/>
      <point x="55" y="0" type="line"/>
      <point x="142" y="348" type="line"/>
      <point x="50" y="348" type="line"/>
      <point x="64" y="405" type="line"/>
      <point x="156" y="405" type="line"/>
      <point x="234" y="720" type="line"/>
      <point x="374" y="720" type="line" smooth="yes"/>
      <point x="530" y="720"/>
      <point x="639" y="639"/>
      <point x="639" y="465" type="curve" smooth="yes"/>
    </contour>
    <contour>
      <point x="566" y="458" type="curve" smooth="yes"/>
      <point x="566" y="461" type="line" smooth="yes"/>
      <point x="566" y="596"/>
      <point x="485" y="664"/>
      <point x="366" y="664" type="curve" smooth="yes"/>
      <point x="289" y="664" type="line"/>
      <point x="225" y="405" type="line"/>
      <point x="366" y="405" type="line"/>
      <point x="352" y="348" type="line"/>
      <point x="211" y="348" type="line"/>
      <point x="138" y="56" type="line"/>
      <point x="232" y="56" type="line" smooth="yes"/>
      <point x="379" y="56"/>
      <point x="505" y="157"/>
      <point x="551" y="331" type="curve" smooth="yes"/>
      <point x="561" y="369"/>
      <point x="566" y="416"/>
    </contour>
  </outline>
</glyph>
<glyph name="Oslash" format="1">
  <advance width="613"/>
  <unicode hex="00D8"/>
  <outline>
    <contour>
      <point x="699" y="817" type="line"/>
      <point x="567" y="642" type="line"/>
      <point x="591" y="603"/>
      <point x="603" y="552"/>
      <point x="603" y="491" type="curve" smooth="yes"/>
      <point x="603" y="488" type="line" smooth="yes"/>
      <point x="603" y="440"/>
      <point x="596" y="391"/>
      <point x="584" y="339" type="curve" smooth="yes"/>
      <point x="542" y="149"/>
      <point x="426" y="-12"/>
      <point x="263" y="-12" type="curve" smooth="yes"/>
      <point x="203" y="-12"/>
      <point x="155" y="8"/>
      <point x="121" y="46" type="curve"/>
      <point x="16" y="-95" type="line"/>
      <point x="-34" y="-95" type="line"/>
      <point x="97" y="77" type="line"/>
      <point x="74" y="117"/>
      <point x="61" y="168"/>
      <point x="61" y="229" type="curve" smooth="yes"/>
      <point x="61" y="232" type="line" smooth="yes"/>
      <point x="61" y="280"/>
      <point x="67" y="329"/>
      <point x="79" y="381" type="curve" smooth="yes"/>
      <point x="121" y="571"/>
      <point x="238" y="732"/>
      <point x="401" y="732" type="curve" smooth="yes"/>
      <point x="461" y="732"/>
      <point x="509" y="712"/>
      <point x="543" y="675" type="curve"/>
      <point x="648" y="817" type="line"/>
    </contour>
    <contour>
      <point x="503" y="621" type="line"/>
      <point x="481" y="656"/>
      <point x="445" y="678"/>
      <point x="396" y="678" type="curve" smooth="yes"/>
      <point x="283" y="678"/>
      <point x="194" y="550"/>
      <point x="154" y="401" type="curve" smooth="yes"/>
      <point x="137" y="339"/>
      <point x="128" y="281"/>
      <point x="128" y="230" type="curve" smooth="yes"/>
      <point x="128" y="228" type="line" smooth="yes"/>
      <point x="128" y="194"/>
      <point x="133" y="163"/>
      <point x="142" y="135" type="curve"/>
    </contour>
    <contour>
      <point x="535" y="490" type="curve" smooth="yes"/>
      <point x="535" y="492" type="line" smooth="yes"/>
      <point x="535" y="526"/>
      <point x="531" y="557"/>
      <point x="521" y="584" type="curve"/>
      <point x="160" y="98" type="line"/>
      <point x="183" y="63"/>
      <point x="219" y="42"/>
      <point x="268" y="42" type="curve" smooth="yes"/>
      <point x="381" y="42"/>
      <point x="469" y="170"/>
      <point x="509" y="319" type="curve" smooth="yes"/>
      <point x="525" y="381"/>
      <point x="535" y="439"/>
    </contour>
  </outline>
</glyph>
<glyph name="ccedilla" format="1">
  <advance width="440"/>
  <unicode hex="00E7"/>
  <outline>
    <contour>
      <point x="437" y="388" type="curve"/>
      <point x="377" y="375" type="line"/>
      <point x="368" y="440"/>
      <point x="345" y="479"/>
      <point x="287" y="479" type="curve" smooth="yes"/>
      <point x="204" y="479"/>
      <point x="144" y="393"/>
      <point x="115" y="284" type="curve" smooth="yes"/>
      <point x="104" y="243"/>
      <point x="98" y="205"/>
      <point x="98" y="168" type="curve" smooth="yes"/>
      <point x="98" y="166" type="line" smooth="yes"/>
      <point x="98" y="79"/>
      <point x="140" y="37"/>
      <point x="199" y="37" type="curve" smooth="yes"/>
      <point x="248" y="37"/>
      <point x="286" y="70"/>
      <point x="329" y="128" type="curve"/>
      <point x="379" y="104" type="line"/>
      <point x="330" y="34"/>
      <point x="272" y="-8"/>
      <point x="197" y="-10" type="curve"/>
      <point x="155" y="-59" type="line"/>
      <point x="169" y="-55"/>
      <point x="184" y="-53"/>
      <point x="199" y="-53" type="curve" smooth="yes"/>
      <point x="237" y="-53"/>
      <point x="263" y="-71"/>
      <point x="263" y="-103" type="curve" smooth="yes"/>
      <point x="263" y="-159"/>
      <point x="200" y="-190"/>
      <point x="102" y="-190" type="curve" smooth="yes"/>
      <point x="79" y="-190"/>
      <point x="52" y="-189"/>
      <point x="29" y="-186" type="curve"/>
      <point x="36" y="-162" type="line"/>
      <point x="53" y="-164"/>
      <point x="71" y="-166"/>
      <point x="86" y="-166" type="curve" smooth="yes"/>
      <point x="166" y="-166"/>
      <point x="206" y="-146"/>
      <point x="206" y="-117" type="curve" smooth="yes"/>
      <point x="206" y="-98"/>
      <point x="191" y="-88"/>
      <point x="168" y="-88" type="curve" smooth="yes"/>
      <point x="149" y="-88"/>
      <point x="133" y="-92"/>
      <point x="112" y="-100" type="curve"/>
      <point x="93" y="-85" type="line"/>
      <point x="162" y="-8" type="line"/>
      <point x="87" y="5"/>
      <point x="33" y="65"/>
      <point x="33" y="168" type="curve" smooth="yes"/>
      <point x="33" y="170" type="line" smooth="yes"/>
      <point x="33" y="205"/>
      <point x="38" y="244"/>
      <point x="47" y="281" type="curve" smooth="yes"/>
      <point x="81" y="414"/>
      <point x="165" y="527"/>
      <point x="294" y="527" type="curve" smooth="yes"/>
      <point x="384" y="527"/>
      <point x="426" y="469"/>
    </contour>
  </outline>
</glyph>
<glyph name="eth" format="1">
  <advance width="494"/>
  <unicode hex="00F0"/>
  <outline>
    <contour>
      <point x="529" y="762" type="line"/>
      <point x="519" y="720" type="line"/>
      <point x="427" y="675" type="line"/>
      <point x="458" y="612"/>
      <point x="474" y="544"/>
      <point x="474" y="471" type="curve" smooth="yes"/>
      <point x="474" y="469" type="line" smooth="yes"/>
      <point x="474" y="406"/>
      <point x="464" y="341"/>
      <point x="443" y="257" type="curve" smooth="yes"/>
      <point x="397" y="77"/>
      <point x="301" y="-10"/>
      <point x="192" y="-10" type="curve" smooth="yes"/>
      <point x="98" y="-10"/>
      <point x="33" y="52"/>
      <point x="33" y="168" type="curve" smooth="yes"/>
      <point x="33" y="170" type="line" smooth="yes"/>
      <point x="33" y="204"/>
      <point x="37" y="241"/>
      <point x="46" y="277" type="curve" smooth="yes"/>
      <point x="79" y="412"/>
      <point x="165" y="525"/>
      <point x="284" y="525" type="curve" smooth="yes"/>
      <point x="359" y="525"/>
      <point x="402" y="471"/>
      <point x="415" y="394" type="curve"/>
      <point x="421" y="394" type="line"/>
      <point x="432" y="500"/>
      <point x="414" y="582"/>
      <point x="376" y="653" type="curve"/>
      <point x="244" y="588" type="line"/>
      <point x="255" y="630" type="line"/>
      <point x="357" y="681" type="line"/>
      <point x="344" y="702"/>
      <point x="328" y="723"/>
      <point x="310" y="742" type="curve"/>
      <point x="371" y="762" type="line"/>
      <point x="385" y="743"/>
      <point x="398" y="723"/>
      <point x="410" y="704" type="curve"/>
    </contour>
    <contour>
      <point x="385" y="349" type="curve" smooth="yes"/>
      <point x="385" y="351" type="line" smooth="yes"/>
      <point x="385" y="439"/>
      <point x="348" y="481"/>
      <point x="289" y="481" type="curve" smooth="yes"/>
      <point x="203" y="481"/>
      <point x="142" y="391"/>
      <point x="115" y="283" type="curve" smooth="yes"/>
      <point x="104" y="241"/>
      <point x="99" y="204"/>
      <point x="99" y="168" type="curve" smooth="yes"/>
      <point x="99" y="166" type="line" smooth="yes"/>
      <point x="99" y="78"/>
      <point x="136" y="36"/>
      <point x="195" y="36" type="curve" smooth="yes"/>
      <point x="281" y="36"/>
      <point x="342" y="126"/>
      <point x="369" y="234" type="curve" smooth="yes"/>
      <point x="380" y="276"/>
      <point x="385" y="313"/>
    </contour>
  </outline>
</glyph>
<glyph name="OE" format="1">
  <advance width="886"/>
  <unicode hex="0152"/>
  <outline>
    <contour>
      <point x="950" y="720" type="line"/>
      <point x="936" y="663" type="line"/>
      <point x="612" y="663" type="line"/>
      <point x="547" y="404" type="line"/>
      <point x="813" y="404" type="line"/>
      <point x="800" y="349" type="line"/>
      <point x="534" y="349" type="line"/>
      <point x="461" y="57" type="line"/>
      <point x="797" y="57" type="line"/>
      <point x="783" y="0" type="line"/>
      <point x="330" y="0" type="line" smooth="yes"/>
      <point x="175" y="0"/>
      <point x="65" y="81"/>
      <point x="65" y="255" type="curve" smooth="yes"/>
      <point x="65" y="258" type="line" smooth="yes"/>
      <point x="65" y="301"/>
      <point x="69" y="337"/>
      <point x="78" y="378" type="curve" smooth="yes"/>
      <point x="128" y="595"/>
      <point x="286" y="720"/>
      <point x="477" y="720" type="curve" smooth="yes"/>
    </contour>
    <contour>
      <point x="542" y="664" type="line"/>
      <point x="472" y="664" type="line" smooth="yes"/>
      <point x="325" y="664"/>
      <point x="199" y="563"/>
      <point x="154" y="389" type="curve" smooth="yes"/>
      <point x="144" y="351"/>
      <point x="138" y="304"/>
      <point x="138" y="262" type="curve" smooth="yes"/>
      <point x="138" y="259" type="line" smooth="yes"/>
      <point x="138" y="124"/>
      <point x="219" y="56"/>
      <point x="338" y="56" type="curve" smooth="yes"/>
      <point x="391" y="56" type="line"/>
    </contour>
  </outline>
</glyph>
<glyph name="oe" format="1">
  <advance width="788"/>
  <unicode hex="0153"/>
  <outline>
    <contour>
      <point x="762" y="358" type="curve" smooth="yes"/>
      <point x="762" y="324"/>
      <point x="756" y="281"/>
      <point x="746" y="246" type="curve"/>
      <point x="437" y="246" type="line"/>
      <point x="433" y="223"/>
      <point x="431" y="199"/>
      <point x="431" y="174" type="curve" smooth="yes"/>
      <point x="431" y="172" type="line" smooth="yes"/>
      <point x="431" y="86"/>
      <point x="469" y="39"/>
      <point x="538" y="39" type="curve" smooth="yes"/>
      <point x="584" y="39"/>
      <point x="627" y="63"/>
      <point x="677" y="100" type="curve"/>
      <point x="696" y="58" type="line"/>
      <point x="643" y="16"/>
      <point x="595" y="-10"/>
      <point x="530" y="-10" type="curve" smooth="yes"/>
      <point x="449" y="-10"/>
      <point x="397" y="42"/>
      <point x="389" y="138" type="curve"/>
      <point x="380" y="138" type="line"/>
      <point x="339" y="54"/>
      <point x="272" y="-10"/>
      <point x="183" y="-10" type="curve" smooth="yes"/>
      <point x="100" y="-10"/>
      <point x="33" y="52"/>
      <point x="33" y="168" type="curve" smooth="yes"/>
      <point x="33" y="170" type="line" smooth="yes"/>
      <point x="33" y="204"/>
      <point x="37" y="242"/>
      <point x="46" y="277" type="curve" smooth="yes"/>
      <point x="80" y="414"/>
      <point x="169" y="527"/>
      <point x="285" y="527" type="curve" smooth="yes"/>
      <point x="368" y="527"/>
      <point x="420" y="471"/>
      <point x="428" y="378" type="curve"/>
      <point x="434" y="378" type="line"/>
      <point x="478" y="468"/>
      <point x="543" y="527"/>
      <point x="624" y="527" type="curve" smooth="yes"/>
      <point x="727" y="527"/>
      <point x="762" y="443"/>
    </contour>
    <contour>
      <point x="700" y="358" type="curve" smooth="yes"/>
      <point x="700" y="425"/>
      <point x="680" y="482"/>
      <point x="615" y="482" type="curve" smooth="yes"/>
      <point x="545" y="482"/>
      <point x="473" y="398"/>
      <point x="445" y="285" type="curve"/>
      <point x="692" y="285" type="line"/>
      <point x="698" y="313"/>
      <point x="700" y="335"/>
    </contour>
    <contour>
      <point x="385" y="349" type="curve" smooth="yes"/>
      <point x="385" y="351" type="line" smooth="yes"/>
      <point x="385" y="435"/>
      <point x="346" y="481"/>
      <point x="285" y="481" type="curve" smooth="yes"/>
      <point x="205" y="481"/>
      <point x="143" y="393"/>
      <point x="115" y="283" type="curve" smooth="yes"/>
      <point x="104" y="241"/>
      <point x="99" y="204"/>
      <point x="99" y="168" type="curve" smooth="yes"/>
      <point x="99" y="166" type="line" smooth="yes"/>
      <point x="99" y="78"/>
      <point x="138" y="36"/>
      <point x="189" y="36" type="curve" smooth="yes"/>
      <point x="275" y="36"/>
      <point x="342" y="126"/>
      <point x="369" y="234" type="curve" smooth="yes"/>
      <point x="380" y="276"/>
      <point x="385" y="313"/>
    </contour>
  </outline>
</glyph>
<glyph name="breve" format="1">
  <advance width="500"/>
  <unicode hex="02D8"/>
  <outline>
    <contour>
      <point x="517" y="750" type="line"/>
      <point x="487" y="648"/>
      <point x="427" y="589"/>
      <point x="336" y="589" type="curve" smooth="yes"/>
      <point x="259" y="589"/>
      <point x="217" y="633"/>
      <point x="217" y="706" type="curve" smooth="yes"/>
      <point x="217" y="720"/>
      <point x="219" y="735"/>
      <point x="222" y="750" type="curve"/>
      <point x="259" y="750" type="line"/>
      <point x="258" y="743"/>
      <point x="257" y="736"/>
      <point x="257" y="730" type="curve" smooth="yes"/>
      <point x="257" y="669"/>
      <point x="289" y="641"/>
      <point x="346" y="641" type="curve" smooth="yes"/>
      <point x="409" y="641"/>
      <point x="450" y="678"/>
      <point x="478" y="750" type="curve"/>
    </contour>
  </outline>
</glyph>
<glyph name="dotaccent" format="1">
  <advance width="500"/>
  <unicode hex="02D9"/>
  <outline>
    <contour>
      <point x="392" y="679" type="line"/>
      <point x="371" y="592" type="line"/>
      <point x="294" y="592" type="line"/>
      <point x="315" y="679" type="line"/>
    </contour>
  </outline>
</glyph>
<glyph name="hungarumlaut" format="1">
  <advance width="500"/>
  <unicode hex="02DD"/>
  <outline>
    <contour>
      <point x="545" y="743" type="line"/>
      <point x="376" y="592" type="line"/>
      <point x="331" y="592" type="line"/>
      <point x="454" y="743" type="line"/>
    </contour>
    <contour>
      <point x="372" y="743" type="line"/>
      <point x="203" y="592" type="line"/>
      <point x="158" y="592" type="line"/>
      <point x="281" y="743" type="line"/>
    </contour>
  </outline>
</glyph>
<glyph name="endash" format="1">
  <advance width="500"/>
  <unicode hex="2013"/>
  <outline>
    <contour>
      <point x="474" y="310" type="line"/>
      <point x="459" y="251" type="line"/>
      <point x="36" y="251" type="line"/>
      <point x="51" y="310" type="line"/>
    </contour>
  </outline>
</glyph>
<glyph name="quoteleft" format="1">
  <advance width="186"/>
  <unicode hex="2018"/>
  <unicode hex="02BB"/>
  <outline>
    <contour>
      <point x="223" y="720" type="line"/>
      <point x="209" y="505" type="line"/>
      <point x="169" y="505" type="line"/>
      <point x="148" y="720" type="line"/>
    </contour>
  </outline>
</glyph>
<glyph name="quotedblright" format="1">
  <advance width="334"/>
  <unicode hex="201D"/>
  <outline>
    <contour>
      <point x="423" y="720" type="line"/>
      <point x="294" y="505" type="line"/>
      <point x="249" y="505" type="line"/>
      <point x="339" y="720" type="line"/>
    </contour>
    <contour>
      <point x="274" y="720" type="line"/>
      <point x="145" y="505" type="line"/>
      <point x="100" y="505" type="line"/>
      <point x="191" y="720" type="line"/>
    </contour>
  </outline>
</glyph>
<glyph name="quotedblbase" format="1">
  <advance width="334"/>
  <unicode hex="201E"/>
  <outline>
    <contour>
      <point x="258" y="96" type="line"/>
      <point x="129" y="-119" type="line"/>
      <point x="84" y="-119" type="line"/>
      <point x="175" y="96" type="line"/>
    </contour>
    <contour>
      <point x="109" y="96" type="line"/>
      <point x="-20" y="-119" type="line"/>
      <point x="-65" y="-119" type="line"/>
      <point x="26" y="96" type="line"/>
    </contour>
  </outline>
</glyph>
<glyph name="dagger" format="1">
  <advance width="433"/>
  <unicode hex="2020"/>
  <outline>
    <contour>
      <point x="467" y="524" type="line"/>
      <point x="452" y="465" type="line"/>
      <point x="292" y="482" type="line"/>
      <point x="275" y="345" type="line"/>
      <point x="166" y="0" type="line"/>
      <point x="138" y="0" type="line"/>
      <point x="200" y="345" type="line"/>
      <point x="252" y="482" type="line"/>
      <point x="83" y="465" type="line"/>
      <point x="97" y="524" type="line"/>
      <point x="257" y="506" type="line"/>
      <point x="293" y="720" type="line"/>
      <point x="369" y="720" type="line"/>
      <point x="298" y="506" type="line"/>
    </contour>
  </outline>
</glyph>
<glyph name="radical" format="1">
  <advance width="562"/>
  <unicode hex="221A"/>
  <outline>
    <contour>
      <point x="638" y="720" type="line"/>
      <point x="219" y="-3" type="line"/>
      <point x="149" y="-3" type="line"/>
      <point x="65" y="340" type="line"/>
      <point x="134" y="340" type="line"/>
      <point x="195" y="58" type="line"/>
      <point x="562" y="720" type="line"/>
    </contour>
  </outline>
</glyph>
<glyph name="apple" format="1">
  <advance width="500"/>
  <unicode hex="F8FF"/>
  <outline>
    <contour>
      <point x="535" y="530" type="line"/>
      <point x="338" y="506" type="line"/>
      <point x="433" y="349" type="line"/>
      <point x="433" y="346" type="line"/>
      <point x="264" y="210" type="line"/>
      <point x="439" y="154" type="line"/>
      <point x="400" y="90" type="line"/>
      <point x="246" y="187" type="line"/>
      <point x="219" y="0" type="line"/>
      <point x="147" y="0" type="line"/>
      <point x="218" y="188" type="line"/>
      <point x="21" y="124" type="line"/>
      <point x="16" y="190" type="line"/>
      <point x="212" y="214" type="line"/>
      <point x="118" y="371" type="line"/>
      <point x="118" y="374" type="line"/>
      <point x="287" y="510" type="line"/>
      <point x="112" y="566" type="line"/>
      <point x="150" y="630" type="line"/>
      <point x="305" y="533" type="line"/>
      <point x="332" y="720" type="line"/>
      <point x="403" y="720" type="line"/>
      <point x="332" y="532" type="line"/>
      <point x="529" y="596" type="line"/>
    </contour>
    <contour>
      <point x="364" y="352" type="line"/>
      <point x="310" y="496" type="line"/>
      <point x="187" y="368" type="line"/>
      <point x="241" y="224" type="line"/>
    </contour>
  </outline>
</glyph>
<glyph name="I.salt" format="1">
  <advance width="257"/>
  <outline>
    <contour>
      <point x="279" y="720" type="line"/>
      <point x="100" y="0" type="line"/>
      <point x="28" y="0" type="line"/>
      <point x="207" y="720" type="line"/>
    </contour>
  </outline>
</glyph>
<glyph name="registered.big" format="1">
  <advance width="835"/>
  <outline>
    <contour>
      <point x="815" y="360" type="curve" smooth="yes"/>
      <point x="815" y="150"/>
      <point x="653" y="-12"/>
      <point x="443" y="-12" type="curve" smooth="yes"/>
      <point x="232" y="-12"/>
      <point x="71" y="149"/>
      <point x="71" y="360" type="curve" smooth="yes"/>
      <point x="71" y="570"/>
      <point x="232" y="732"/>
      <point x="443" y="732" type="curve" smooth="yes"/>
      <point x="654" y="732"/>
      <point x="815" y="571"/>
    </contour>
    <contour>
      <point x="779" y="360" type="curve" smooth="yes"/>
      <point x="779" y="553"/>
      <point x="636" y="700"/>
      <point x="443" y="700" type="curve" smooth="yes"/>
      <point x="250" y="700"/>
      <point x="107" y="553"/>
      <point x="107" y="360" type="curve" smooth="yes"/>
      <point x="107" y="167"/>
      <point x="250" y="20"/>
      <point x="443" y="20" type="curve" smooth="yes"/>
      <point x="636" y="20"/>
      <point x="779" y="167"/>
    </contour>
    <contour>
      <point x="607" y="162" type="line"/>
      <point x="544" y="162" type="line"/>
      <point x="430" y="337" type="line"/>
      <point x="375" y="337" type="line"/>
      <point x="375" y="162" type="line"/>
      <point x="320" y="162" type="line"/>
      <point x="320" y="568" type="line"/>
      <point x="452" y="568" type="line" smooth="yes"/>
      <point x="536" y="568"/>
      <point x="590" y="529"/>
      <point x="590" y="454" type="curve" smooth="yes"/>
      <point x="590" y="390"/>
      <point x="550" y="353"/>
      <point x="488" y="342" type="curve"/>
    </contour>
    <contour>
      <point x="534" y="453" type="curve" smooth="yes"/>
      <point x="534" y="499"/>
      <point x="505" y="524"/>
      <point x="447" y="524" type="curve" smooth="yes"/>
      <point x="375" y="524" type="line"/>
      <point x="375" y="381" type="line"/>
      <point x="449" y="381" type="line" smooth="yes"/>
      <point x="504" y="381"/>
      <point x="534" y="403"/>
    </contour>
  </outline>
</glyph>
